<svg xmlns="http://www.w3.org/2000/svg" viewBox="0 0 1200 300" preserveAspectRatio="none">
  <rect width="1200" height="300" fill="none"/>
  <g fill="#0F2233" fill-opacity="0.35">
    <rect x="0" y="180" width="60" height="120"/>
    <rect x="70" y="140" width="45" height="160"/>
    <rect x="125" y="200" width="55" height="100"/>
    <rect x="190" y="120" width="40" height="180"/>
    <rect x="240" y="165" width="70" height="135"/>
    <rect x="320" y="90" width="50" height="210"/>
    <rect x="380" y="150" width="60" height="150"/>
    <rect x="450" y="110" width="45" height="190"/>
    <rect x="505" y="175" width="65" height="125"/>
    <rect x="580" y="60" width="55" height="240"/>
    <rect x="645" y="130" width="40" height="170"/>
    <rect x="695" y="170" width="70" height="130"/>
    <rect x="775" y="95" width="50" height="205"/>
    <rect x="835" y="155" width="60" height="145"/>
    <rect x="905" y="115" width="45" height="185"/>
    <rect x="960" y="185" width="65" height="115"/>
    <rect x="1035" y="140" width="50" height="160"/>
    <rect x="1095" y="175" width="55" height="125"/>
    <rect x="1160" y="200" width="40" height="100"/>
  </g>
  <g fill="#0F2233" fill-opacity="0.55">
    <rect x="30" y="210" width="40" height="90"/>
    <rect x="150" y="225" width="35" height="75"/>
    <rect x="260" y="200" width="45" height="100"/>
    <rect x="400" y="215" width="38" height="85"/>
    <rect x="520" y="205" width="42" height="95"/>
    <rect x="660" y="220" width="40" height="80"/>
    <rect x="800" y="210" width="45" height="90"/>
    <rect x="920" y="225" width="38" height="75"/>
    <rect x="1050" y="215" width="42" height="85"/>
  </g>
  <!-- Petites fenêtres éclairées, pour la texture -->
  <g fill="#F0783A" fill-opacity="0.4">
    <circle cx="80" cy="170" r="2"/><circle cx="95" cy="190" r="2"/>
    <circle cx="200" cy="145" r="2"/><circle cx="215" cy="165" r="2"/>
    <circle cx="335" cy="120" r="2"/><circle cx="350" cy="145" r="2"/><circle cx="335" cy="170" r="2"/>
    <circle cx="460" cy="140" r="2"/><circle cx="475" cy="165" r="2"/>
    <circle cx="595" cy="95" r="2"/><circle cx="610" cy="120" r="2"/><circle cx="595" cy="150" r="2"/>
    <circle cx="785" cy="130" r="2"/><circle cx="800" cy="155" r="2"/>
    <circle cx="915" cy="150" r="2"/><circle cx="930" cy="175" r="2"/>
    <circle cx="1045" cy="170" r="2"/><circle cx="1060" cy="195" r="2"/>
  </g>
</svg>
